REM DIRINDEX 1\2,1\3\7,1\3\8,1\4\9,1\4\10,1\4\11,1\5\12,1\5\13,1\5\14,1\6\15,1\6\16,1\6\17
REM DIRNAME "folder01","folder02","folder03","folder04","folder05","folder06","folder07","folder08","folder09","folder10","folder11","folder12","folder13","folder14","folder15","folder16","folder17"
TITLE ""
FILE "2Q_t_0353-0370.mp3" MP3
  TRACK 01 AUDIO
    TITLE "0:"
    INDEX 01 00:00:00
  TRACK 02 AUDIO
    TITLE "7:cjc174_2452"
    INDEX 01 00:00:12
  TRACK 03 AUDIO
    TITLE "0:"
    INDEX 01 00:01:65
  TRACK 04 AUDIO
    TITLE "8:cjc174_2453"
    INDEX 01 00:02:39
  TRACK 05 AUDIO
    TITLE "0:"
    INDEX 01 00:04:20
  TRACK 06 AUDIO
    TITLE "7:cjc174_2454"
    INDEX 01 00:04:63
  TRACK 07 AUDIO
    TITLE "0:"
    INDEX 01 00:05:68
  TRACK 08 AUDIO
    TITLE "8:cjc174_2455"
    INDEX 01 00:06:40
  TRACK 09 AUDIO
    TITLE "0:"
    INDEX 01 00:08:43
  TRACK 10 AUDIO
    TITLE "7:cjc174_2456"
    INDEX 01 00:09:11
  TRACK 11 AUDIO
    TITLE "0:"
    INDEX 01 00:10:34
  TRACK 12 AUDIO
    TITLE "8:cjc174_2457"
    INDEX 01 00:11:04
  TRACK 13 AUDIO
    TITLE "0:"
    INDEX 01 00:12:12
  TRACK 14 AUDIO
    TITLE "7:cjc174_2458"
    INDEX 01 00:12:55
  TRACK 15 AUDIO
    TITLE "0:"
    INDEX 01 00:14:07
  TRACK 16 AUDIO
    TITLE "8:cjc174_2459"
    INDEX 01 00:14:50
  TRACK 17 AUDIO
    TITLE "0:"
    INDEX 01 00:15:57
  TRACK 18 AUDIO
    TITLE "7:cjc174_2460"
    INDEX 01 00:16:25
  TRACK 19 AUDIO
    TITLE "0:"
    INDEX 01 00:17:56
  TRACK 20 AUDIO
    TITLE "8:cjc174_2461"
    INDEX 01 00:18:30
  TRACK 21 AUDIO
    TITLE "0:"
    INDEX 01 00:19:51
  TRACK 22 AUDIO
    TITLE "7:cjc174_2462"
    INDEX 01 00:20:21
  TRACK 23 AUDIO
    TITLE "0:"
    INDEX 01 00:21:40
  TRACK 24 AUDIO
    TITLE "8:cjc174_2463"
    INDEX 01 00:22:10
  TRACK 25 AUDIO
    TITLE "0:"
    INDEX 01 00:23:25
  TRACK 26 AUDIO
    TITLE "7:cjc174_2464"
    INDEX 01 00:23:70
  TRACK 27 AUDIO
    TITLE "0:"
    INDEX 01 00:25:06
  TRACK 28 AUDIO
    TITLE "8:cjc174_2465"
    INDEX 01 00:25:55
  TRACK 29 AUDIO
    TITLE "0:"
    INDEX 01 00:26:72
  TRACK 30 AUDIO
    TITLE "7:cjc174_2466"
    INDEX 01 00:27:40
  TRACK 31 AUDIO
    TITLE "0:"
    INDEX 01 00:28:69
  TRACK 32 AUDIO
    TITLE "8:cjc174_2467"
    INDEX 01 00:29:45
  TRACK 33 AUDIO
    TITLE "0:"
    INDEX 01 00:32:51
  TRACK 34 AUDIO
    TITLE "7:cjc174_2468"
    INDEX 01 00:33:22
  TRACK 35 AUDIO
    TITLE "0:"
    INDEX 01 00:34:15
  TRACK 36 AUDIO
    TITLE "8:cjc174_2469"
    INDEX 01 00:34:74
  TRACK 37 AUDIO
    TITLE "0:"
    INDEX 01 00:37:31
  TRACK 38 AUDIO
    TITLE "7:cjc174_2470"
    INDEX 01 00:38:01
  TRACK 39 AUDIO
    TITLE "0:"
    INDEX 01 00:39:06
  TRACK 40 AUDIO
    TITLE "8:cjc174_2471"
    INDEX 01 00:39:51
  TRACK 41 AUDIO
    TITLE "0:"
    INDEX 01 00:41:48
  TRACK 42 AUDIO
    TITLE "7:cjc174_2472"
    INDEX 01 00:42:19
  TRACK 43 AUDIO
    TITLE "0:"
    INDEX 01 00:43:28
  TRACK 44 AUDIO
    TITLE "8:cjc174_2473"
    INDEX 01 00:44:04
  TRACK 45 AUDIO
    TITLE "0:"
    INDEX 01 00:47:35
  TRACK 46 AUDIO
    TITLE "7:cjc174_2474"
    INDEX 01 00:48:05
  TRACK 47 AUDIO
    TITLE "0:"
    INDEX 01 00:49:28
  TRACK 48 AUDIO
    TITLE "8:cjc174_2475"
    INDEX 01 00:49:75
  TRACK 49 AUDIO
    TITLE "0:"
    INDEX 01 00:52:17
  TRACK 50 AUDIO
    TITLE "7:cjc174_2476"
    INDEX 01 00:52:60
  TRACK 51 AUDIO
    TITLE "0:"
    INDEX 01 00:54:22
  TRACK 52 AUDIO
    TITLE "8:cjc174_2477"
    INDEX 01 00:54:67
  TRACK 53 AUDIO
    TITLE "0:"
    INDEX 01 00:57:38
  TRACK 54 AUDIO
    TITLE "7:cjc174_2478"
    INDEX 01 00:58:08
  TRACK 55 AUDIO
    TITLE "0:"
    INDEX 01 00:59:42
  TRACK 56 AUDIO
    TITLE "8:cjc174_2479"
    INDEX 01 01:00:14
  TRACK 57 AUDIO
    TITLE "0:"
    INDEX 01 01:03:46
  TRACK 58 AUDIO
    TITLE "7:cjc174_2480"
    INDEX 01 01:04:18
  TRACK 59 AUDIO
    TITLE "0:"
    INDEX 01 01:05:29
  TRACK 60 AUDIO
    TITLE "8:cjc174_2481"
    INDEX 01 01:06:03
  TRACK 61 AUDIO
    TITLE "0:"
    INDEX 01 01:10:17
  TRACK 62 AUDIO
    TITLE "7:cjc174_2482"
    INDEX 01 01:10:60
  TRACK 63 AUDIO
    TITLE "0:"
    INDEX 01 01:12:08
  TRACK 64 AUDIO
    TITLE "8:cjc174_2483"
    INDEX 01 01:12:51
  TRACK 65 AUDIO
    TITLE "0:"
    INDEX 01 01:16:43
  TRACK 66 AUDIO
    TITLE "7:cjc174_2484"
    INDEX 01 01:17:11
  TRACK 67 AUDIO
    TITLE "0:"
    INDEX 01 01:18:42
  TRACK 68 AUDIO
    TITLE "8:cjc174_2485"
    INDEX 01 01:19:22
  TRACK 69 AUDIO
    TITLE "0:"
    INDEX 01 01:21:58
  TRACK 70 AUDIO
    TITLE "7:cjc174_2486"
    INDEX 01 01:22:28
  TRACK 71 AUDIO
    TITLE "0:"
    INDEX 01 01:23:39
  TRACK 72 AUDIO
    TITLE "8:cjc174_2487"
    INDEX 01 01:24:19
  TRACK 73 AUDIO
    TITLE "0:"
    INDEX 01 01:26:22
